<svg height="100" viewBox="0 0 100 100" width="100" xmlns="http://www.w3.org/2000/svg"><path d="m31.0461331 15c-.3392822-.007531-.7095218.0913116-1.1202737.2925457-.7394062.3622551-.8236351.3742548-1.5572349.2225236-.426598-.0882355-1.1905232-.1604248-1.6973518-.1604248-.8635152 0-.9556819.0310016-1.4673761.4939216-.8522112.7709764-1.5850172.9194103-4.6915346.9498938-1.6328939.0160226-2.8341772.0878968-3.0616687.183136-.2527602.1058169-.5164275.4385718-.8113462 1.0243544-.2402508.47721-.7074345 1.120537-1.0381615 1.4294398-.5440334.5081381-.6011856.6227854-.6011856 1.2060538 0 .4908348.0645167.6850166.2701645.8136185.2437199.1524215.2494969.1916353.0597099.4016352-.1321496.1462229-.1941821.4275598-.1668114.7569822.035088.4221194.1297537.5745659.4857788.7819942.70961.4134214 1.8010577.4644421 2.5776098.1204603l.6551627-.2900849.5052998.400197c.2779406.2202111 1.0859794.6363233 1.7958247.9245932.7098599.2882715 1.3097666.5881642 1.3330214.6664211.0232401.0782553.0783637.3619371.1225949.6304824.0442165.2685438.4258337 1.0711606.8480953 1.7833487 1.1061032 1.8655624 1.1312249 1.9632068 1.2058255 4.6974282.0722046 2.6459359.3363423 4.4532736 1.1231401 7.6871191 1.2907894 5.3052404 2.7045412 8.3720018 4.8264772 10.4698102 1.2291979 1.2152183 2.1628451 1.7183766 5.0983616 2.7481921l2.618372.9185565.0149348 1.3357139c.0085258.7345285.1804968 2.4372417.3824109 3.7837601.5554256 3.703853.5977312 4.7949429.2311223 5.9696065-.2692237.8626048-.2920522 1.1506157-.2127477 2.6909803.087845 1.7060487.0833322 1.7439259-.4211739 3.4499746-.2805572.9487427-.616826 2.1667578-.7473293 2.7067924-.1305033.5400316-.5073578 1.4715255-.8374674 2.0699848-1.0837598 1.9647126-1.3785609 2.6004779-1.4645097 3.1590272-.1049553.6820241-.2264184.8394107-.9330885 1.2103667-.4290676.225229-.8463607.3016503-1.7797433.325735-1.4403728.0371662-1.7435674.2148383-1.7435674 1.0206169 0 .5533414.2802632.9041738.6184135.7742325.1471874-.0565627.2089553.0098034.2104399.2259724.0051449.7531521.4684479.9283998 2.4349206.9211429 1.8951353-.006992 2.6882687-.1333534 3.1937155-.5088711.5229395-.388505.7595594-1.1857418.5980399-2.0150722-.1046614-.5374233-.0816271-.7941102.1188612-1.3224911.1368389-.3606329.473093-1.6129277.7473293-2.7829781.2742363-1.1700489.8054663-3.1493547 1.1805569-4.3981432.3751052-1.2487886.6821658-2.3245183.6821658-2.3908329 0-.066316.1752343-.2962275.3895843-.5108833.492717-.4933842.9870068-1.976381 1.0818048-3.2455639.0560056-.7497813.1885962-1.1976472.5922922-2.0009853.6324664-1.2585434.9712341-2.2853589 1.5141797-4.5896167.5853247-2.4841069 1.7849911-5.587328 2.4535744-6.3468038.6015972-.6833798 1.192934.0205166 1.9609162 2.3344836.3232744.9740565 1.2849978 3.354525 2.1371796 5.2899612 1.6894875 3.8370828 1.8096276 4.2186327 1.9893306 6.3125918.1039411 1.2111836.1939322 1.5607707.6281887 2.4408569l.5067258 1.0269421v3.838384c0 4.1783739-.158418 6.2824543-.499273 6.6596015-.1173619.1298722-.2133064.3376317-.2133064.4614333 0 .145621-.2067797.2860311-.5856921.3981849-.8251639.2442471-2.0326799 1.4564391-2.0326799 2.0403728 0 .4717696.3591267.6954575 1.116246.6954575.3680053 0 .3943911.0281635.260404.2788727-.0819652.1533666-.1061461.3482697-.0536831.4332594.0660455.1070166.5969227.1314943 1.7272068.0793491 1.8567105-.0856639 2.6373051-.3589181 3.2238645-1.1290039.4256866-.5588304.4252457-.71593-.0036749-1.3480772-.1894783-.2792422-.3443536-.5577455-.344236-.6186962.0001176-.0609521.6357591-.1106862 1.4125465-.1106862 1.1652251 0 1.5087114-.0505702 1.9634886-.2886483.4687125-.2453644.5576747-.3630926.5937329-.7874568.023343-.2744965-.0204031-.6164882-.097047-.759857-.113687-.2127422-.0666041-.3145185.256097-.5534326.464038-.3435476.8788763-1.3606376 1.254643-3.0762278.3704601-1.6913509 1.0114376-3.4377263 1.8182122-4.953301 2.3015067-4.3235547 2.548534-5.0041053 2.9293132-8.0729408.3027243-2.439672.719106-4.0721477 1.942527-7.6149563.5718451-1.6560217 1.2546136-3.7561602 1.5170462-4.6669536.523983-1.8184513.7874887-2.2265853 1.3465157-2.0860839.5161775.1297279.7855336.7316802.6293206 1.4061515-.2036046.8790793-.1550811 2.9663497.088139 3.7943966.1211103.4122468.5511039 1.3705029.9554761 2.1294974.9171835 1.7216105 1.3815155 3.0957493 1.599173 4.7327897.1504801 1.1318787.1435125 1.3261268-.0625911 1.7589122-.1274311.2675841-.2316956.7984026-.2316956 1.1793166 0 .8666542.3647273 2.5153189.7059793 3.1909399.1859356.368143.2594926.8140394.2615505 1.5869883.001617.5912451.0937396 2.2548446.2047071 3.6969348.2630499 3.4176247.2703703 6.6850389.0163607 7.2938212-.2556707.6127715-.9564022 1.3907148-1.84548 2.0484232-.8230912.6088795-1.0926678 1.1012378-.8702183 1.5901501.1145249.2516984.2541861.3145229.6999524.3145229.5166186 0 .5507511.0235769.4748716.3263106-.1088507.4342795.0967236.5018335 1.8251064.6002948 1.5565587.0886741 2.0714133-.03744 2.5282191-.6189832.3636101-.4628802.3411785-1.114708-.0720576-2.0978716-.3070606-.7305586-.3719742-1.2306213-.6201334-4.7764902-.3305506-4.7230289-.3398702-6.0255245-.0654574-9.0271459.3748112-4.1000537.3934503-4.938958.1340753-6.002956-.3587151-1.4715476-.4213062-3.8527978-.1498775-5.6996452.3058994-2.0814707 1.6956908-8.1556047 1.9841711-8.6717989.0661336-.118348.3907309.0611699 1.0594025.5864949.8948401.7030118 3.7647227 2.2620338 4.1641265 2.2620338.2366199 0 .222523-.5875401-.0287084-1.1896661-.3321676-.7960621-1.0358978-1.5774042-1.925593-2.1384102-1.3531453-.8532327-1.4390793-.9324846-1.8239598-1.6818625-.4042399-.7870608-.4062243-.8202012-.2193479-3.9484962.226095-3.7849244-.0168164-5.0081238-1.7849175-8.9814334-.8851972-1.9892403-1.8432016-3.4377056-2.7848894-4.2104072-.6772562-.5557216-1.1996076-1.4557546-1.5204859-2.6205426-.3734294-1.3555755-1.3267594-4.3762092-1.5609833-4.9461134-.3284927-.7992813-1.3330214-1.697913-2.6025699-2.3278699-.983082-.4878099-1.2584502-.5633494-2.0697229-.5680966-1.7139771-.0100242-2.1396049.4235281-3.8678407 3.9407344-1.1482029 2.3367682-1.220187 2.4467419-1.6063463 2.4494813-.3053261.0021638-.562849-.161776-1.0516558-.6695828-.7759495-.806157-1.1556851-1.7284451-1.5408743-3.74351-.4039165-2.1129757-.4837208-2.3933455-.830294-2.9083283-.7331882-1.0894869-2.088362-1.5778605-4.0880559-1.4731388-1.6274991.0852282-2.5518855.4168041-3.6645741 1.3144393-1.0944906.8829535-1.7786114 1.8996653-2.1937437 3.2602264-.4651552 1.5244538-.9626495 2.2504124-2.1627422 3.1552898-1.4609817 1.1015926-2.5777128 2.5408992-4.040385 5.2074488-.9781135 1.7831574-1.9391608 3.1032123-2.8759095 3.9502214-1.0730879.9702897-1.569171 1.1493174-3.1934363 1.1522908-1.5826065.0028851-2.1552747-.2286441-2.4753886-1.0002049-.3423398-.8251029-.8028645-4.8713098-.8125075-7.138285-.0085258-2.0155492.0124947-2.1929312.3646244-3.07364.6385961-1.5970215.4560708-3.1262769-.5888526-4.9303012-.2857461-.4933461-.7099481-1.2768462-.9425551-1.7410865-.5497956-1.0972855-1.1467183-1.6315514-1.8931509-1.6495358zm31.0954694 39.2548339c.0202267.0024729.0351468.0079929.0442165.0169632.2139826.2116264.2671658 2.8792079.0892856 4.4774908-.1317087 1.1833424-.1351778 2.0492268-.0149201 3.8087721.2157465 3.1571827.0501404 4.7503652-.8877255 8.5369632-1.21882 4.9209497-1.8522125 6.4061883-3.4170912 8.0125657-.8144037.8359897-1.5424471 1.3371505-1.656869 1.1405046-.0329566-.0566451-.1894048-.6618211-.3476757-1.3449154-.6790201-2.9305729-.6991733-5.7232603-.0600039-8.3489387.4140004-1.7006671.457232-3.3320624.1243148-4.6919655-.2925374-1.1948696-.2794547-2.3609677.0510959-4.5761039.1898163-1.2719738.2756181-2.5552187.2756181-4.1523328 0-1.2713144.0360876-2.3114823.0789517-2.3114823.0428935 0 .2007235.0658862.3508508.1463363.1501127.0804516.6116076.2013519 1.0255199.2688103 1.0073511.1641739 2.1279775-.0470787 3.313444-.6247329.4871899-.2374024.889416-.3752527 1.0309881-.3579347z" fill="#fff"/></svg>