<svg height="100" viewBox="0 0 100 100" width="100" xmlns="http://www.w3.org/2000/svg"><path d="m62.7551136 44.7654648h22.2448864v8.845882h-4.2596591v8.7654648h-8.5982007v-8.7654648h-9.3870266c-1.7354166 5.0662778-6.5472538 8.7654648-12.1479166 8.7654648-7.1783144 0-12.9367425-5.950866-12.9367425-13.1884058s5.7584281-13.1884058 12.9367425-13.1884058c5.6006628 0 10.3336174 3.6187699 12.1479166 8.7654648zm-11.9596591 8.2780135c2.3863637 0 4.375-1.8592886 4.375-4.2608696s-1.9090909-4.2608696-4.375-4.2608696c-2.465909 0-4.375 1.8592886-4.375 4.2608696s1.9886364 4.2608696 4.375 4.2608696zm-27.3547251-.5188881c.049798 1.2750519.3050093 2.2632023.7656414 2.9644808.460632.7012786 1.1889178 1.0519126 2.184879 1.0519126.9959613 0 1.7117977-.3060079 2.1475307-.9180328.4357331-.6120249.6535963-1.4535465.6535963-2.5245901v-17.0983607h8.4780777v16.715847c0 3.7231516-1.0021709 6.5345989-3.0065429 8.4344262-2.004372 1.8998274-4.7618984 2.8497268-8.2726618 2.8497268-3.7099556 0-6.5110546-.9817752-8.403381-2.9453552-1.8923264-1.9635799-2.8882727-4.8069031-2.9878688-8.5300546z" fill="#fff"/></svg>