<svg height="100" viewBox="0 0 100 100" width="100" xmlns="http://www.w3.org/2000/svg"><g fill="none"><g opacity=".9" transform="translate(15 14)"><g stroke="#fff" stroke-width="2"><path d="m43.7512499 47.4750937c-.1555556.0868302-.3263889.1280352-.4958332.1280352-.2694444 0-.5361111-.1069336-.7361112-.3121036l-7.2138888-7.405365c-.1972224-.2024611-.3055555-.4762111-.3055555-.7572327 0 .2810216-.1083334.5547716-.3055558.7572327l-7.2138888 7.405365c-.1999998.20517-.4666665.3121036-.7361111.3121036-.1694444 0-.3402777-.041205-.4958333-.1280352l-17.98459076-10.0067032v20.2013242c0 .0370706.00167411.0738556.00528523.1102129.01930554.1250411.02541666.1475685.03124999.1700958.03472223.1092148.03777777.1193379.04180556.1293184.05180556.1107832.06097223.1261816.07.1414374.06222223.0955274.07388888.112209.08666666.1284629.07597222.0858321.08486112.0935313.09347222.1016582.06444445.058885.08166668.0712892.09861111.0841213.05944446.0434863.09041668.0625916.12236113.0804139l25.69111096 14.2558164c.1547223.0858321.3250002.1286055.4954169.1286055s.3408334-.0429161.4952778-.1286055l25.6911109-14.2558164c.1030556-.0648729.1125001-.0728573.1223612-.0804139.0672223-.0534669.0827779-.0687227.0986111-.0841213.0783333-.0844061.08625-.0926756.0933335-.1016582.0698609-.0989492.0780555-.1136347.0866664-.1284629.0526391-.1019432.0619445-.1213339.07-.1414374.0369447-.1080742.0390279-.1187676.0418056-.1293184.0200001-.08683.0220833-.1055079.0247222-.1241855.010139-.0824103.011813-.1191953.011813-.1561232v-20.2013242z"/><path d="m34.4540278 9.41642968c.2888888-.15954492.4874999-.45197265.5347221-.78560547.0069446-.05118553.0111113-.10251366.0111113-.15398437 0 .05147071.0041667.10279884.0111111.15255861.0472222.33363281.2458332.62463476.534722.78560545l25.6944446 14.2578125c.1569445.0871152.3263889.1283203.4958332.1283203-.1694443 0-.3388887.042916-.4958332.1297461l-25.6944446 14.2578125c-.2888888.15983-.4874998.4519726-.534722.7856055-.0069444.0514708-.0111111.1027989-.0111111.1539845 0-.0511856-.0041667-.1025137-.0111113-.1539845-.0472222-.3336329-.2458333-.6257755-.5347221-.7856055l-25.69444446-14.2578125c-.1375-.0754238-.28472222-.1183398-.43194445-.1283203.14722223-.0099805.29444445-.0526113.43194445-.1283203z"/><path d="m69.9109722 15.171168c.0472222.3336328-.0597222.6699746-.2916667.9095058l-7.1444443 7.4043672c-.2000001.2080215-.4680557.3163809-.7388891.3163809-.1694443 0-.3388887-.0412051-.4958332-.1283203l-25.6944446-14.25781255c-.2888888-.16097068-.4874998-.45197265-.534722-.78560545-.0069444-.04990236-.0111111-.10108789-.0111111-.1525586 0-.00142579 0-.00142579 0-.00285155 0-.28073634.1083331-.5547715.3055555-.7555215l7.2138888-7.40565039c.325-.33505859.8263889-.40905664 1.2319444-.1837832l25.625 14.25781254c.288889.1594023.4861112.4504043.5347223.7840371z"/><path d="m69.6193055 31.5233105c.2319445.2395313.3388889.5761582.2916667.9097911-.0486111.3322071-.2458333.6229237-.5347223.7841797l-25.625 14.2578124c-.1555556.0868302-.3263889.1280352-.4958332.1280352-.2694444 0-.5361111-.1069336-.7361112-.3121036l-7.2138888-7.405365c-.1972224-.2024611-.3055555-.4762111-.3055555-.7572327 0-.0511855.0041667-.1025136.0111111-.1539842.0472222-.3336329.2458332-.6257755.534722-.7856055l25.6944446-14.2578125c.1569445-.0868301.3263889-.1297461.4958332-.1297461.2708334 0 .538889.1097851.7388891.316666z"/><path d="m34.9998612 8.47413087v.00285155c0 .05147071-.0041667.10279882-.0111113.15398437-.0472222.33363282-.2458333.62606055-.5347221.78560547l-25.69444446 14.25781254c-.1375.0757089-.28472222.1183398-.43194445.1283203-.02916667-.0014258-.05972223-.0014258-.0888889 0-.2625-.0055606-.51944445-.1139199-.71388889-.3149551l-7.14444443-7.405793c-.23194445-.2395312-.33888889-.575873-.29166667-.9095058.04861111-.3322071.24583333-.623209.53472222-.7841797l25.62499998-14.25781252c.4055556-.22527343.9069445-.14984961 1.2319444.18378321l7.2138888 7.40565039c.1972224.20260352.3041668.47492774.3055558.75423829z"/><path d="m34.9887499 38.9744434c.0069446.0514706.0111113.1027987.0111113.1539842 0 .2810216-.1083334.5547716-.3055558.7572327l-7.2138888 7.405365c-.1999998.20517-.4666665.3121036-.7361111.3121036-.1694444 0-.3402777-.041205-.4958333-.1280352l-25.62499998-14.2578124c-.28888889-.161256-.48611111-.4519726-.53472222-.7841797-.04722222-.3336329.05972222-.6702598.29166667-.9097911l7.14444443-7.4053652c.19444444-.2010351.45138889-.3093945.71388889-.3152402.00833333.0014258.01666669.0014258.02500002.0014258.02083332 0 .04166666 0 .06388888-.0014258.14722223.0099805.29444445.0528965.43194445.1283203l25.69444446 14.2578125c.2888888.15983.4874999.4519726.5347221.7856055z"/></g><path d="m8.34093723 23.802863c-.0255468.0016365-.04949694.0016365-.07344706.0016365-.00958005 0-.01916013 0-.02874018-.0016365.03353019-.0016364.06865705-.0016364.10218724 0z" fill="#292c32"/><path d="m34.6943054 39.8856603-7.2138888 7.405365c-.1999998.20517-.4666665.3121036-.7361111.3121036-.1694444 0-.3402777-.041205-.4958333-.1280352l-17.98459076-10.0067032v20.2013242c0 .0370706.00167411.0738556.00528523.1102129.00152777.0155411.00444445.0306545.00652779.0459103.00263888.0186776.00472221.0373555.00833333.0557481.00444442.0233827.01055554.0459101.01638887.0684374.00277777.0105508.00486111.0211016.00791666.0315098.00680556.0230976.01500002.0453399.02319445.0677247.00361112.0099803.00666666.0201034.01069445.0300839.00805556.0201035.01736112.0394942.02652779.0590274.00569443.0119766.01083332.0239532.01694444.0359297.00833333.0158261.0175.0312245.02652777.0464803.00861112.0146855.01680556.0295137.02597223.0440568.00763889.0119766.01624999.0230977.02444445.0345037.01180555.0169669.0234722.0336485.03624998.0499024.00708335.0089826.01500002.0172521.02236112.0259492.01472222.0175371.02944444.0347892.04527777.0511856.00833333.0086973.01722223.0163965.02583333.0245234.01583336.0153986.03138889.0306544.04819445.0449123.01625.0139727.03347223.0263769.05041666.039209.01000001.0075566.01930557.015541.02958334.0228124.02986112.0206739.06083334.0397792.09277779.0576015l25.69111096 14.2558164c.1547223.0858321.3250002.1286055.4954169.1286055v-33.8714298c0 .2810216-.1083334.5547716-.3055558.7572327z" stroke="#fff" stroke-width="2"/></g><path d="m36.1599326 62.7645136c-.4091872-.2409191-.8105356-.4369684-1.1538767-.57684-1.0112098-.4101367-1.1915031-.1215079-1.1915031.6075218v1.1262249l2.4080905 1.4276861v.4558532l-3.5494251-2.10435c-.694521-.4117612-1.3137888-.3314334-1.5050566.3948103-.2194874.8318564-.2288942 1.4195585 0 2.560821.1708865.8487787.5847771 1.6338114 1.2792981 2.0455726l.9532025.5651257v-1.4077811c0-.8346129.6819789-1.2045675 1.4925144-.7240248l2.1070792 1.2492252c.6647334.3941009 1.2040453.1322953 1.2040453-.5732711v-2.4133392c0-.6854551-.5549894-1.5273268-1.2040453-2.027772-.4107548-.3155897-.431136-.3645433-.8403232-.6054626zm-1.3964917.203631c.2344682.1390093.4301075.4603677.4301075.7134978 0 .2515382-.1956393.3425109-.4301075.2035016-.2359616-.1398947-.4301075-.4619597-.4301075-.7134979 0-.2531301.1941459-.3433962.4301075-.2035015zm3.8358969 3.7643148v1.4077555c0 .8345983-.6819788 1.2045386-1.4925144.7239958l-2.1070792-1.2492254c-.6647333-.3941006-1.2040453-.1323057-1.2040453.573248v2.4132957c0 .6854426.5549899 1.5289812 1.2040453 2.0277484.4107552.3155884.4311361.3662174.8403233.6054604.4091871.2409193.8105355.4369696 1.1538767.5768419 1.0112097.411816 1.1915031.1215184 1.1915031-.6074979v-1.1262047l-2.4080905-1.4276862v-.4558446l3.5494251 2.1043497c.694521.4117612 1.3137892.3314419 1.5050564-.394787.2194876-.8318386.2288943-1.4195302 0-2.5607747-.1708864-.8487646-.584777-1.6337881-1.279298-2.0455493zm-1.4703055 5.3180455c.2359619.139895.4301075.4619601.4301075.7134978 0 .2531304-.1941456.3433966-.4301075.2035019-.2344683-.1390094-.4301075-.4603677-.4301075-.7134981 0-.2515377.1956392-.3425109.4301075-.2035016z" fill="#fff"/></g></svg>