<svg height="100" viewBox="0 0 100 100" width="100" xmlns="http://www.w3.org/2000/svg"><g fill="none" stroke="#fff" stroke-width="2" transform="translate(15 26)"><path d="m68.0350865 3.56050077c2.4340172 2.87736905 2.9649135 6.30897427 2.9649135 14.91259313v12.0540368c0 7.8901968-1.2792629 12.5500272-4.3628422 15.4852158-2.9994863 2.8552733-7.5075184 3.9876535-15.4667062 3.9876535h-32.3413548c-15.21725297 0-19.8290968-5.2381465-19.8290968-19.4728693v-12.0540368c0-8.86545482.37713267-11.71812533 2.67014529-14.61560435 2.76109479-3.48884448 7.76588107-4.85748955 17.15895151-4.85748955h32.341129c9.1794766 0 14.0934967 1.28371343 16.8648607 4.56050077z"/><path d="m44.8539206 26.2386636.0001626-.0000827-14.6007216 7.4260696c-.4637488.2358956-.9755412.3570886-1.493251.3570886-.5861219 0-1.1634719-.1554677-1.6710644-.454525-.9747381-.5747938-1.5738947-1.6097918-1.5738947-2.7301979v-14.8045563c0-1.1187832.5976925-2.1527787 1.5705869-2.7279551.9642925-.5699002 2.1601823-.6088199 3.1600911-.1032832l14.6007128 7.3782198c1.0768025.5440644 1.7578699 1.6333691 1.7595177 2.8273242.001314 1.1941716-.6767408 2.2851866-1.7521394 2.831898z"/></g></svg>