<svg height="100" viewBox="0 0 100 100" width="100" xmlns="http://www.w3.org/2000/svg"><g fill="none" transform="translate(15 16)"><path d="m28.2537313 51.6363701v-1.5000065h-7.2428568l-.1275546-.8519255-2.9927599-19.9887776c-.3049502-1.8967382.2230245-3.8339358 1.4486261-5.3084066 1.1087237-1.3274222 2.7438625-2.0913223 4.4615441-2.0847246h2.4986008c1.1096741-1.7298097 4.0108155-2.7649353 7.5255972-3.0231269.6314723-1.2187333 1.6281255-2.1326591 3.2133785-3.1435244.1485557-1.4463071 1.1757874-2.668896 2.600671-3.0356427 1.5462612-.3979876 3.1612181.3147683 3.9208211 1.72635.7569158 1.4065877.4735222 3.1518792-.6903645 4.2417913-.5093596.4769856-1.1306124.7752824-1.7802749.8875219 1.703133.5206878 3.0083419 1.3050679 3.6717557 2.3466335l2.4786169.0000106c1.7194464-.008864 3.3536725.75172 4.4650182 2.0780304 1.2247804 1.4703943 1.7540056 3.4059576 1.4519764 5.2914715l-3.1219018 20.8643191h-9.3331323v1.1604852c5.5856925.3622786 10.1858542 4.761881 11.2634417 10.5711337.1183998-.0573194.2376625-.1162308.3582408-.1769445 1.6034408-.7924345 3.1382021-1.7187758 4.5797403-2.7631294.3280693-.2429716.6617936-.4952323 1.0023988-.7570217 7.0836887-5.5857612 11.0946859-13.8000118 11.0946859-23.4199168.000849-9.033032-3.5928258-17.689055-9.9764048-24.0315128-6.3821672-6.34105503-15.020437-9.8404914-23.9828664-9.7162578-18.1985713.2508918-33.00008499 15.3294949-33.03996801 33.6642365-.02718268 6.3969067 1.76281619 12.6680069 5.16231292 18.0791551 1.92311101 3.1100029 1.6489519 7.1105129-.67773668 9.9219306l-4.13933165 5.0476899c1.49962791-.1421619 4.15525239-.3719953 9.54527442-.8382289.8960623-.0775089 1.673872-.1454589 2.4038643-.2101529l1.0276216-.093154c1.2093928-.1081743 2.4019617-.2211858 3.5279806-.3339763v-1.7409494c0-6.1637288 3.941947-11.4560139 9.402985-12.86338zm10.9405958-32.2858923c-.2032251-.0829859-.4009122-.1863204-.5902077-.3102554l.0130045-.0198628c.2983179.0425287.5902297.0909445.874935.145226-.1042145.0632021-.2033538.1247317-.2977318.1848922zm-3.8746616 1.1030202.9135293-1.1741958c.5605492-.7204961 1.2795402-1.2661148 2.4085138-1.9357889l.5362719-.3181008.521658.3415384c.566139.3706607 1.3068693.305931 1.8027359-.1584193.5008072-.4689767.623682-1.2257064.2962326-1.8342104-.324762-.6035101-1.0083715-.9052189-1.6611035-.7372141-.6558963.1688192-1.1180107.7700695-1.1177527 1.4626289v.1015918.1015918.5622065l-.480331.2921612c-1.7897669 1.0886254-2.6808182 1.9145145-3.1319742 3.0711645z" stroke="#fff" stroke-width="2"/><path d="m35.0353713 23.0076769-.3891617.0179128c-3.7072768.1765687-5.6838083 1.335781-5.6838083 2.1034713v.5117935h-3.7072769c-.9346937-.0026969-1.8236239.4041319-2.4322603 1.1131508-.7072934.8346887-1.0115868 1.9380084-.8320891 3.0170227l2.4962672 16.228972h22.0823636l2.4834658-16.2187361c.1820058-1.0791437-.1225756-2.1835074-.832089-3.0170227-.6079953-.7098692-1.4973415-1.1168884-2.4322604-1.1131509h-3.6944754v-.5117935c0-.7676902-1.9893329-1.9371384-5.7247728-2.1060302l-.7373589-.0332666z"/><g fill="#fff"><path d="m28.7313433 35.5454545c-1.4425348 0-2.6119403-1.1701648-2.6119403-2.6136363s1.1694055-2.6136364 2.6119403-2.6136364 2.6119403 1.1701649 2.6119403 2.6136364c-.0015059 1.4428469-1.1700298 2.6121295-2.6119403 2.6136363z"/><path d="m42.3134328 35.5454545c-1.4425348 0-2.6119403-1.1701648-2.6119403-2.6136363s1.1694055-2.6136364 2.6119403-2.6136364 2.6119403 1.1701649 2.6119403 2.6136364c-.0015059 1.4428469-1.1700297 2.6121295-2.6119403 2.6136363z"/><path d="m36.2191327 42.8636364h-1.3962163c-1.9221892-.0013557-3.4796328-1.4051566-3.4796328-3.1363637h8.3582089c0 1.7321658-1.5591056 3.1363637-3.4823598 3.1363637z"/></g></g></svg>