<?xml version="1.0" encoding="UTF-8"?>
<svg width="862px" height="1024px" viewBox="0 0 862 1024" version="1.1" xmlns="http://www.w3.org/2000/svg" xmlns:xlink="http://www.w3.org/1999/xlink">
    <title>Combined Shape</title>
    <g id="Page-1" stroke="none" stroke-width="1" fill="none" fill-rule="evenodd">
        <path d="M290.53569,122.732277 C341.690986,69.2100938 407.811115,27.3696428 427.624248,37.5243508 C447.437381,47.6790588 379.064892,213.284785 270.531679,287.994423 C270.531679,287.994423 319.12921,347.89193 322.908594,396.489461 C326.611626,445.086992 393.953374,512.352389 457.477563,512.352389 C521.078102,512.352389 861.298996,575.914753 779.030591,856.390842 C779.030591,856.390842 861.298996,811.534519 861.337171,889.985364 C861.337171,968.512561 801.516015,953.585904 764.142109,953.585904 C726.768202,953.585904 758.530297,1023.75265 704.359129,1023.75265 L349.097051,1023.75265 C317.334957,1023.75265 355.854131,948.584901 420.141832,948.584901 C484.353181,948.584901 521.116278,972.215594 562.193217,961.030145 C603.346507,949.844696 405.176999,908.691405 476.221779,777.825469 C476.221779,777.825469 400.175996,861.277318 477.481574,931.062303 L477.385305,931.034659 C474.256668,930.142485 395.662114,908.192069 357.801087,943.583898 C298.972496,998.594929 229.45474,1035.62526 203.266282,1020.66042 C177.039649,1005.77194 219.376383,964.809529 245.641192,938.582895 C271.715122,912.432614 218.192939,826.232122 184.865646,777.634591 C151.576528,729.075236 158.409959,658.030455 169.595408,620.618373 C180.780857,583.244467 221.934148,549.535417 94.8094197,530.905727 C-32.3153082,512.123335 -2.38564255,422.448865 20.0234311,407.484032 C42.4706804,392.557375 49.9149212,351.44226 83.5476195,317.733211 C117.218493,284.062337 175.245396,275.740057 175.245396,275.740057 C175.245396,275.740057 225.446302,190.723009 290.53569,122.732277 Z M152.912674,257.568475 C183.491325,72.0732634 330.238308,-23.8238287 339.133221,5.07509593 C340.35484,9.19806008 329.894727,35.2338152 314.62449,69.7445521 C300.384993,81.5789863 286.565428,94.4059858 274.272887,107.232985 C219.719963,164.305498 176.085259,231.723597 161.34948,255.545168 C158.791715,256.117802 156.043072,256.766787 152.912674,257.568475 Z" id="Combined-Shape" fill="#000000" fill-rule="nonzero"></path>
    </g>
</svg>