<svg xmlns="http://www.w3.org/2000/svg" viewBox="0 0 181 110"><title>side-by-size</title><g fill="currentColor" fill-rule="nonzero"><path d="M70 0c8.837 0 16 7.163 16 16v78c0 8.837-7.163 16-16 16H16c-8.837 0-16-7.163-16-16V16C0 7.163 7.163 0 16 0zm0 14H16a2 2 0 0 0-2 2v78a2 2 0 0 0 2 2h54a2 2 0 0 0 2-2V16a2 2 0 0 0-2-2M165 0c8.837 0 16 7.163 16 16v78c0 8.837-7.163 16-16 16h-54c-8.837 0-16-7.163-16-16V16c0-8.837 7.163-16 16-16zm0 14h-54a2 2 0 0 0-2 2v78a2 2 0 0 0 2 2h54a2 2 0 0 0 2-2V16a2 2 0 0 0-2-2"/></g></svg>
