<?xml version="1.0" encoding="UTF-8"?>
<svg width="1024px" height="1024px" viewBox="0 0 1024 403" version="1.1" xmlns="http://www.w3.org/2000/svg" xmlns:xlink="http://www.w3.org/1999/xlink">
    <title>jot</title>
    <g id="Page-1" stroke="none" stroke-width="1" fill="none" fill-rule="evenodd">
        <g id="jot" fill="#000000" fill-rule="nonzero">
            <path d="M523.930151,0 C605.360172,0 674.177376,52.1138925 700.55914,126.23828 L1024,126.23828 L1024,253.632688 L962.064516,253.632688 L962.064516,379.870968 L837.04843,379.870968 L837.04843,253.632688 L700.55914,253.632688 C675.328,326.595441 605.360172,379.870968 523.930151,379.870968 C419.55372,379.870968 335.827957,294.168774 335.827957,189.935484 C335.827957,85.7021935 419.55372,0 523.930151,0 M525.763441,126.623656 C490.077591,126.623656 462.451613,154.249634 462.451613,189.935484 C462.451613,225.621333 491.228215,253.247312 525.763441,253.247312 C560.298667,253.247312 589.075269,225.621333 589.075269,189.935484 C589.075269,154.249634 561.44929,126.623656 525.763441,126.623656 M124.421505,237.832258 C125.155556,256.183513 128.917563,270.405735 135.707527,280.498925 C142.497491,290.592115 153.232975,295.63871 167.913978,295.63871 C182.594982,295.63871 193.146953,291.234409 199.569892,282.425806 C205.992832,273.617204 209.204301,261.505376 209.204301,246.090323 L209.204301,0 L334.176344,0 L334.176344,240.584946 C334.176344,294.170609 319.403584,334.635125 289.858065,361.978495 C260.312545,389.321864 219.664516,402.993548 167.913978,402.993548 C113.22724,402.993548 71.9369176,388.863082 44.0430108,360.602151 C16.1491039,332.341219 1.46810036,291.417921 0,237.832258 L124.421505,237.832258 Z" id="Shape"></path>
        </g>
    </g>
</svg>
