<?xml version="1.0" encoding="UTF-8"?>
<svg width="1024px" height="1119px" viewBox="0 0 1024 1119" version="1.1" xmlns="http://www.w3.org/2000/svg" xmlns:xlink="http://www.w3.org/1999/xlink">
    <title>Combined Shape</title>
    <g id="Page-1" stroke="none" stroke-width="1" fill="none" fill-rule="evenodd">
        <path d="M621.801961,628.745945 C653.874911,611.69998 782.310922,608.008129 838.611641,689.603789 C894.768144,771.228292 918.880543,977.222005 766.274447,1030.40772 C761.601949,1032.02291 757.333247,1033.2343 752.920333,1034.67643 L752.920333,1086.96802 C752.920333,1104.27357 738.960524,1118.23338 721.654975,1118.23338 L692.293228,1118.23338 C675.045366,1118.23338 661.02787,1104.27357 661.02787,1086.96802 L661.02787,1053.39526 C588.575308,1057.6928 554.339165,1030.40772 511.998257,1030.40772 C469.686192,1030.40772 435.421206,1057.6928 362.9398,1053.39526 L362.9398,1086.96802 C362.9398,1104.27357 349.008834,1118.23338 331.703285,1118.23338 L302.399223,1118.23338 C285.093676,1118.23338 271.105023,1104.27357 271.105023,1086.96802 L271.105023,1034.67643 C266.663266,1033.26314 262.394565,1032.05175 257.722067,1030.40772 C105.115972,977.250846 129.170684,771.228292 185.413716,689.603789 C241.685592,608.008129 370.09276,611.69998 402.252237,628.745945 C434.411714,645.791909 511.998257,653.694776 511.998257,653.694776 C511.998257,653.694776 589.671327,645.791909 621.801961,628.745945 Z M819.258269,8.48624795 C857.04205,-11.9631417 929.436926,1.88129699 960.875339,79.4101538 C992.371438,156.910168 970.104964,256.676654 909.102906,247.620084 C891.018609,244.966567 872.501672,248.600732 855.36918,255.003784 C867.886859,284.13479 879.366206,317.217232 889.518796,355.058697 C889.518796,355.058697 1084.6677,446.460835 1004.80259,668.37565 C982.56496,730.156458 956.375896,782.649956 928.312066,826.721418 C921.361005,767.248018 903.565132,712.331743 880.981392,674.692176 C841.438212,608.758036 766.30329,569.359072 680.208187,569.359072 C660.162594,569.359072 622.580711,571.781847 595.987851,587.991379 C583.210589,595.778875 543.609725,604.806603 511.969414,609.01762 C483.732529,605.268085 441.910785,596.49994 427.950976,587.991379 C401.358118,571.781847 363.776235,569.359072 343.788327,569.359072 C257.635537,569.359072 182.500616,608.758036 142.957438,674.692176 C120.40254,712.3029 102.606667,767.219175 95.684448,826.721418 C67.5917744,782.649956 41.4027112,730.185301 19.193924,668.37565 C-60.642339,446.460835 134.391191,355.058697 134.391191,355.058697 C144.601465,317.217232 156.080812,284.13479 168.569649,255.003784 C151.465999,248.600732 132.977905,244.966567 114.922449,247.620084 C53.862706,256.676654 31.5962338,156.93901 63.0923319,79.4101538 C94.5307448,1.88129699 166.89678,-11.9631417 204.709403,8.48624795 C238.916703,26.9743422 270.6147,62.0757628 294.006032,92.7642686 C365.535632,46.2988711 444.42009,45.7220196 511.998257,45.7220196 L514.028966,45.722238 C581.152803,45.7381455 659.147334,46.7635251 729.961638,92.7642686 C753.324129,62.0469203 785.050968,26.9743422 819.258269,8.48624795 Z M394.407056,746.308304 C400.204414,734.050206 334.529859,695.401149 295.159736,702.957904 C255.847299,710.543503 272.374097,761.969824 303.668296,766.38274 C334.962498,770.795653 388.667383,758.624084 394.407056,746.308304 Z M728.836778,702.957904 C689.495498,695.372306 623.792099,734.050206 629.589457,746.308304 C635.386817,758.624084 689.034016,770.795653 720.328217,766.38274 C751.622416,761.998667 768.149215,710.572346 728.836778,702.957904 Z M332.712775,300.978859 C304.27399,300.978859 281.171083,324.081766 281.171083,352.549392 C281.171083,381.01702 304.27399,404.119927 332.712775,404.119927 C361.180403,404.119927 384.312153,381.01702 384.312153,352.549392 C384.312153,324.081766 361.15156,300.978859 332.712775,300.978859 Z M691.283739,300.978859 C662.787269,300.978859 639.742047,324.081766 639.742047,352.549392 C639.742047,381.01702 662.787269,404.119927 691.283739,404.119927 C719.751365,404.119927 742.883115,381.01702 742.883115,352.549392 C742.883115,324.081766 719.751365,300.978859 691.283739,300.978859 Z M198.652461,70.4689538 C177.337794,58.9607641 136.61207,66.7771034 118.873883,110.444771 C101.135696,154.112438 113.682218,210.326627 148.062574,205.192648 C161.907013,203.144824 176.184091,207.67311 188.35566,213.758894 C208.430095,176.407752 230.581197,147.363274 254.030216,124.75069 C240.618416,106.147226 220.515137,82.2944119 198.652461,70.4689538 Z M905.151473,110.444771 C887.44213,66.7771034 846.716406,58.9607641 825.372896,70.4689538 C803.539063,82.2944119 783.435784,106.147226 769.995141,124.75069 C793.415317,147.363274 815.566418,176.407752 835.669697,213.758894 C847.841266,207.67311 862.089501,203.144824 875.962782,205.192648 C910.400823,210.326627 922.889661,154.112438 905.151473,110.444771 Z" id="Combined-Shape" fill="#000000" fill-rule="nonzero"></path>
    </g>
</svg>