<svg height="48" viewBox="0 0 48 48" width="48" xmlns="http://www.w3.org/2000/svg"><g fill="#fff"><path d="m24 48c-13.254834 0-24-10.745166-24-24s10.745166-24 24-24 24 10.745166 24 24-10.745166 24-24 24zm0-46.82926829c-12.6082567 0-22.82926829 10.22101159-22.82926829 22.82926829s10.22101159 22.8292683 22.82926829 22.8292683 22.8292683-10.2210116 22.8292683-22.8292683-10.2210116-22.82926829-22.8292683-22.82926829z"/><path d="m34.5365854 18.6029268c-.7889038.3486272-1.6254459.5774925-2.4819513.6790244.9015232-.53905 1.5757656-1.3880959 1.8965854-2.3882927-.8484271.5037808-1.7770313.8581948-2.7453658 1.0478049-1.2145205-1.2897238-3.092672-1.708566-4.7400976-1.0570782-1.6474255.6514877-2.7311143 2.2416138-2.7350244 4.0131758-.0012466.3310119.0360782.6610418.1112195.9834146-3.4766815-.1742378-6.7164812-1.8143465-8.9151219-4.5131707-1.1446741 1.9764365-.5580916 4.5020711 1.3404878 5.7717073-.6871319-.0213605-1.3593123-.2059593-1.9609756-.5385366v.0526829c.0012098 2.0586952 1.4531009 3.8313245 3.4712195 4.2380488-.3717324.102718-.7558044.1539276-1.1414634.1521951-.2788911.0017833-.5572884-.0237038-.8312196-.0760975.564018 1.762878 2.1884007 2.9705712 4.0390244 3.0029268-1.8094821 1.4110022-4.101029 2.0543173-6.3804878 1.7912195 1.9766157 1.2700535 4.2768642 1.9446847 6.6263415 1.9434164 7.9551219 0 12.2926829-6.5853676 12.2926829-12.2926847 0-.187317 0-.3746341 0-.5853658.8441521-.6079969 1.5735405-1.3611697 2.1541464-2.2243903"/></g></svg>