<svg height="68" viewBox="0 0 69 68" width="69" xmlns="http://www.w3.org/2000/svg"><g fill="none"><path d="m27.8358209 50.8767498v-1.4525074h-7.137381l-.1275768-.8518951-2.9499819-19.6989285c-.3012655-1.8734271.2203293-3.7868143 1.4311328-5.2431761 1.0956134-1.3114504 2.7114026-2.0661522 4.4087057-2.0596341h2.4551339c1.0990997-1.7043808 3.9558304-2.7231423 7.4168785-2.9786551.6231672-1.1986706 1.6047933-2.0985793 3.1629749-3.0926532.1496438-1.4282753 1.1654195-2.6348318 2.5734878-2.9971743 1.5304861-.3938446 3.1289796.3114971 3.8808596 1.7084335.7492439 1.3920387.4687211 3.119288-.6833524 4.1979112-.4887876.4576249-1.081667.7490441-1.703345.8676138 1.6504261.5129306 2.916097 1.2796024 3.5659289 2.2945268l2.4353231.0000106c1.6990953-.0087573 3.3139861.7426701 4.4122153 2.0530516 1.2099766 1.4523168 1.7328083 3.3640948 1.4344472 5.2263136l-3.0791467 20.5742553h-9.1977964v1.1155848c5.500616.3632048 10.0300043 4.692725 11.0988411 10.4103256.1111641-.0539105.2231268-.109256.336277-.1662175 1.5798199-.7805968 3.0919717-1.6930999 4.5121485-2.7217606.3233103-.2393968.6521991-.4879501.9877349-.7457876 6.9790305-5.5020783 10.9306701-13.5930687 10.9306701-23.0690556.0008365-8.8982177-3.5399505-17.4250594-9.8295933-23.6728736-6.2882721-6.24645254-14.7994695-9.69368657-23.6300657-9.57130611-17.9308148.2471485-32.51458083 15.10080711-32.55387692 33.16192001-.02678253 6.3014154 1.73686677 12.4789045 5.08638094 17.8093738 1.89893465 3.0702605 1.6282208 7.0196678-.66917454 9.7951061l-4.058085 4.9475747c1.48446105-.1403617 4.10268569-.3669081 9.37460572-.8228302.8832523-.0763848 1.649941-.1433492 2.3694656-.2071021l1.0129581-.0918054c1.1874272-.1061873 2.3583992-.2171044 3.4645493-.3278319v-1.7025857c0-6.076897 3.8848149-11.2954325 9.2686567-12.6882213zm10.8000262-31.7905114c-.2035327-.0825869-.4014927-.1857621-.5909598-.3097833l.0295358-.0451218c.3048115.0435476.6028406.0933276.8932108.1493193-.1168483.0705241-.2272962.1389104-.3317868.2055858zm-3.7716384.9843336.8401564-1.0796596c.5539303-.7118392 1.2638361-1.2504502 2.3781102-1.9112662l.5361887-.3179846.5215814.3414165c.5525779.361706 1.2755562.2985409 1.7595498-.1545957.488839-.4576732.6087807-1.1961838.2891505-1.7900326-.3169941-.5889512-.9842304-.8833718-1.6213234-.7194268-.6401957.1647435-1.0912627.7514969-1.0910108 1.4273835v.1001195.1001194.5622679l-.4804107.2921483c-1.7617237 1.071343-2.6380376 1.8834019-3.0812926 3.019557z" stroke="#fff" stroke-width="2"/><path d="m35.0159267 23.0076769-.3868096.0179128c-3.6848701.1765687-5.6494556 1.335781-5.6494556 2.1034713v.5117935h-3.6848702c-.9290445-.0026969-1.8126021.4041319-2.4175599 1.1131508-.7030185.8346887-1.0054728 1.9380084-.8270599 3.0170227l2.4811798 16.228972h21.9488988l2.4684558-16.2187361c.1809058-1.0791437-.1218348-2.1835074-.8270599-3.0170227-.6043206-.7098692-1.4882916-1.1168884-2.4175599-1.1131509h-3.6721462v-.5117935c0-.7676902-1.9773095-1.9371384-5.6901725-2.1060302l-.7329023-.0332666z"/><g fill="#fff"><path d="m28.5 35c-1.3807119 0-2.5-1.1192881-2.5-2.5s1.1192881-2.5 2.5-2.5 2.5 1.1192881 2.5 2.5c-.0014414 1.3801144-1.1198856 2.4985586-2.5 2.5z"/><path d="m41.5 35c-1.3807119 0-2.5-1.1192881-2.5-2.5s1.1192881-2.5 2.5-2.5 2.5 1.1192881 2.5 2.5c-.0014414 1.3801144-1.1198856 2.4985586-2.5 2.5z"/><path d="m35.6668842 42h-1.3363785c-1.8398096-.0012967-3.3305057-1.3440628-3.3305057-3h8c0 1.6568542-1.4922868 3-3.3331158 3z"/></g></g></svg>