<svg height="48" viewBox="0 0 48 48" width="48" xmlns="http://www.w3.org/2000/svg"><g fill="#fff"><path d="m24 48c-13.254834 0-24-10.745166-24-24s10.745166-24 24-24 24 10.745166 24 24-10.745166 24-24 24zm0-46.82926829c-12.6082567 0-22.82926829 10.22101159-22.82926829 22.82926829s10.22101159 22.8292683 22.82926829 22.8292683 22.8292683-10.2210116 22.8292683-22.8292683-10.2210116-22.82926829-22.8292683-22.82926829z"/><path d="m18.1053659 32.7278049h-4.097561v-13.1590244h4.097561zm-2.16-14.8039025h-.0292683c-.6343044.0472997-1.2595827-.1721746-1.7251725-.6055398s-.7292716-1.0413239-.7275192-1.677387c0-1.2995122.989277-2.2829268 2.5112282-2.2829268.6373234-.0505602 1.2668442.1670602 1.7368785.6004251.4700342.4333649.7379596 1.0431772.7392191 1.6825017 0 1.2760976-.9658537 2.2829268-2.5053658 2.2829268zm18.5912195 14.8039025h-4.6829269v-6.8078049c0-1.7560976-.7258536-2.9970732-2.3414634-2.9970732-1.0112933-.0000831-1.9083611.6491106-2.2243902 1.6097561-.0978954.348077-.1316157.7110662-.0995122 1.0712195v7.1239025h-4.577561s.0585366-12.0585366 0-13.1531708h4.6126829v2.0839025c.275122-.9014634 1.7560976-2.1892683 4.097561-2.1892683 2.9268293 0 5.2156098 1.8907317 5.2156098 5.964878z"/></g></svg>