<svg height="48" viewBox="0 0 48 48" width="48" xmlns="http://www.w3.org/2000/svg"><g fill="#fff"><path d="m24 48c-13.254834 0-24-10.745166-24-24s10.745166-24 24-24 24 10.745166 24 24-10.745166 24-24 24zm0-46.82926829c-12.6082567 0-22.82926829 10.22101159-22.82926829 22.82926829s10.22101159 22.8292683 22.82926829 22.8292683 22.8292683-10.2210116 22.8292683-22.8292683-10.2210116-22.82926829-22.8292683-22.82926829z"/><path d="m30.4390244 13.4634146h-12.8780488c-2.2630204 0-4.097561 1.8345406-4.097561 4.097561v12.8780488c0 1.0867407.4317061 2.1289714 1.2001479 2.8974131.7684417.7684418 1.8106724 1.2001479 2.8974131 1.2001479h12.8780488c1.0867407 0 2.1289714-.4317061 2.8974131-1.2001479.7684418-.7684417 1.2001479-1.8106724 1.2001479-2.8974131v-12.8780488c0-1.0867407-.4317061-2.1289714-1.2001479-2.8974131-.7684417-.7684418-1.8106724-1.2001479-2.8974131-1.2001479zm1.1707317 2.4292683h.462439v3.5707317h-3.5590244v-3.5707317zm-10.6126829 5.9473171c1.0677319-1.4754485 3.0504905-1.9542984 4.6739208-1.1287841 1.6234303.8255144 2.4045391 2.7097908 1.8412936 4.4417707s-2.3032719 2.796375-4.1017326 2.5090793c-1.7984608-.2872958-3.1202886-1.8408079-3.1159316-3.6620659.0022665-.7757809.2479596-1.5312872.7024498-2.16zm11.49081 8.5990244c.0047076.543756-.2099905 1.0664657-.5955991 1.4498708-.3856086.3834052-.90954.5951042-1.4532597.5872024h-12.8780488c-.5427116.0063135-1.0651215-.2060875-1.4494527-.5893175s-.5982304-.9050283-.5935518-1.4477557v-8.5990244h3.1434923c-.9747186 2.4059616-.2196274 5.1666365 1.8439352 6.741577 2.0635626 1.5749404 4.9256402 1.5749404 6.9892028 0 2.0635626-1.5749405 2.8186538-4.3356154 1.8439352-6.741577h3.1493466z"/></g></svg>