<svg height="48" viewBox="0 0 48 48" width="48" xmlns="http://www.w3.org/2000/svg"><g fill="#fff"><path d="m34.184424 21.6128492c-.0053931-3.1246714-1.5013643-4.2305456-1.7892931-4.7482781.4239534-2.3669483-.0701096-3.4455577-.2996137-3.8131837-.8476072-.2996137-2.9487982.7762992-4.0969179 1.5349211-1.8716869-.5479935-5.8274867-.4943626-7.3105745.1417173-2.7369713-1.9597733-4.1847048-1.6610585-4.1847048-1.6610585s-.9359932 1.6778368-.2474809 4.1346693c-.9006388 1.1475205-1.5717735 1.9588744-1.5717735 4.1109997.0002866.4916239.029098.9828171.0862887 1.4711033.7754003 4.0777426 4.0067342 5.8370743 7.1805422 6.1402834-.4775842.3628322-1.0510449 1.048648-1.1304425 1.8456204-.5992274.3894979-1.8072699.5162345-2.7459596.221115-1.3153042-.4155642-1.8189549-3.0201062-3.7886154-2.6485852-.4260507.0796972-.3415597.3595364.0275644.5992274.5992274.3894978 1.1651978.8730743 1.6008361 1.9085393.3346685.7948752 1.0381615 2.2141453 3.2630929 2.2141453.8832612 0 1.5019636-.1042655 1.5019636-.1042655v2.5940555c0 .0728061.0548293.075203.1363242.088386.1704802.0275645.4578097.1018687.6082158.1240401.5737603.0847907 1.4345505.2336987 3.1360567.2336987 2.3609561 0 2.9317202-.2627612 3.9501072-.6366791-.0065915-.8059609 0-.3835056 0-2.6614686s-.3059056-3.1189787-1.3716316-3.7901135c3.0905155-.3172909 6.3008764-1.6973116 6.8791308-5.3268321.1006151-.6527681.156374-1.3116644.1668849-1.9720575z"/><path d="m24 48c-13.254834 0-24-10.745166-24-24s10.745166-24 24-24 24 10.745166 24 24-10.745166 24-24 24zm0-46.82926829c-12.6082567 0-22.82926829 10.22101159-22.82926829 22.82926829s10.22101159 22.8292683 22.82926829 22.8292683 22.8292683-10.2210116 22.8292683-22.8292683-10.2210116-22.82926829-22.8292683-22.82926829z"/></g></svg>