<svg height="71" viewBox="0 0 68 71" width="68" xmlns="http://www.w3.org/2000/svg"><g fill="none" fill-rule="evenodd" transform="translate(1 1)"><g opacity=".9"><g stroke="#fff" stroke-width="2"><path d="m41.2511785 44.8737187c-.1466667.0820724-.3077381.1210196-.4674999.1210196-.2540476 0-.5054762-.1010742-.6940477-.2950021l-6.8016666-6.9995915c-.1859525-.1913674-.2880952-.4501174-.2880952-.7157405 0 .2656231-.1021429.5243731-.2880954.7157405l-6.8016666 6.9995915c-.1885713.1939279-.4399999.2950021-.6940476.2950021-.1597619 0-.3208333-.0389472-.4675-.1210196l-16.95689986-9.4583907v19.0944023c0 .0350394.00157845.0698088.00498322.1041739.01820237.1181895.02396428.1394825.02946428.1607755.0327381.1032304.03561904.1127988.03941667.1222324.04884524.1047129.0574881.1192676.066.1336874.05866667.090293.06966666.1060606.08171428.1214239.07163095.0811289.08001191.0884063.08813095.0960878.06076191.0556585.07700001.067383.09297619.079512.05604763.0411034.08525001.0591619.11536906.0760076l24.22304751 13.4746758c.145881.081129.3064287.1215586.4671073.1215586s.3213572-.0405645.4669762-.1215586l24.2230475-13.4746758c.0971667-.0613182.1060715-.0688651.1153691-.0760076.063381-.0505373.0780477-.0649571.0929762-.079512.0738571-.0797811.0813214-.0875974.0880001-.0960878.0658689-.0935274.0735952-.1074082.0817141-.1214239.0496311-.0963573.0584048-.1146854.066-.1336874.0348335-.1021523.0367977-.1122598.0394167-.1222324.0188572-.0820722.0208214-.0997267.0233095-.1173809.0095596-.0778946.0111379-.112664.0111379-.1475685v-19.0944023z"/><path d="m32.4852262 8.90046093c.2723809-.15080273.4596428-.42720702.5041666-.74255859.0065477-.04838085.0104763-.09689648.0104763-.14554687 0 .04865039.0039286.09716602.0104762.14419923.0445238.31535156.2317856.5904082.5041665.74255858l24.2261906 13.47656252c.1479762.0823417.3077381.121289.4674999.121289-.1597618 0-.3195237.0405645-.4674999.1226368l-24.2261906 13.4765625c-.2723809.1510721-.4596427.4272069-.5041665.7425586-.0065476.0486505-.0104762.0971661-.0104762.145547 0-.0483809-.0039286-.0968965-.0104763-.145547-.0445238-.3153517-.2317857-.5914865-.5041666-.7425586l-24.22619048-13.4765625c-.12964286-.071291-.26845238-.1118555-.40726191-.1212891.13880953-.0094336.27761905-.0497285.40726191-.1212891z"/><path d="m65.9160595 14.3398711c.0445238.3153516-.0563095.6332637-.275.8596699l-6.7361904 6.9986484c-.1885715.1966231-.4413096.299045-.6966668.299045-.1597618 0-.3195237-.0389473-.4674999-.1212891l-24.2261906-13.4765625c-.2723809-.15215037-.4596427-.42720702-.5041665-.74255858-.0065476-.04716798-.0104762-.09554882-.0104762-.14419922 0-.00134766 0-.00134766 0-.0026953 0-.26535353.1021427-.52437306.2880952-.71412306l6.8016666-6.99986133c.3064286-.31669922.7791667-.38664258 1.1615476-.17371289l24.1607143 13.47656258c.272381.1506679.4583334.4257246.5041667.7410761z"/><path d="m65.6410595 29.7960058c.2186905.2264063.3195238.5445879.275.8599395-.0458333.314004-.2317857.5887909-.5041667.741211l-24.1607143 13.4765624c-.1466667.0820724-.3077381.1210196-.4674999.1210196-.2540476 0-.5054762-.1010742-.6940477-.2950021l-6.8016666-6.9995915c-.1859525-.1913674-.2880952-.4501174-.2880952-.7157405 0-.0483808.0039286-.0968964.0104762-.1455467.0445238-.3153517.2317856-.5914865.5041665-.7425587l24.2261906-13.4765625c.1479762-.0820722.3077381-.1226367.4674999-.1226367.2553572 0 .5080953.1037695.6966668.2993145z"/><path d="m32.9998691 8.00979493v.0026953c0 .0486504-.0039286.09716601-.0104763.14554687-.0445238.31535157-.2317857.59175587-.5041666.7425586l-24.22619048 13.4765625c-.12964286.0715605-.26845238.1118555-.40726191.1212891-.0275-.0013477-.05630953-.0013477-.08380953 0-.2475-.0052559-.48976191-.1076777-.67309524-.2976973l-6.73619046-6.9999961c-.21869049-.2264062-.31952382-.5443183-.27500001-.8596699.04583333-.314004.23178571-.5890606.50416667-.7412109l24.16071426-13.47656256c.382381-.21292968.8551191-.14163867 1.1615476.1737129l6.8016666 6.99986133c.1859525.19150195.2867858.4489043.2880954.71291016z"/><path d="m32.9893928 36.8388575c.0065477.0486503.0104763.0971659.0104763.1455467 0 .2656231-.1021429.5243731-.2880954.7157405l-6.8016666 6.9995915c-.1885713.1939279-.4399999.2950021-.6940476.2950021-.1597619 0-.3208333-.0389472-.4675-.1210196l-24.16071426-13.4765624c-.27238096-.1524201-.45833334-.427207-.50416667-.741211-.04452381-.3153516.05630952-.6335332.27500001-.8599395l6.73619046-6.9995917c.18333333-.1900195.42559524-.2924414.67309524-.2979668.00785714.0013477.0157143.0013477.02357144.0013477.01964285 0 .03928571 0 .06023809-.0013477.13880953.0094336.27761905.049998.40726191.121289l24.22619048 13.4765625c.2723809.1510722.4596428.427207.5041666.7425587z"/></g><path d="m7.86431225 22.4985965c-.02408699.0015469-.04666855.0015469-.06925009.0015469-.00903262 0-.01806527 0-.02709788-.0015469.03161418-.0015467.06473379-.0015467.09634797 0z" fill="#292c32" fill-rule="nonzero"/><path d="m32.7117737 37.7001447-6.8016666 6.9995915c-.1885713.1939279-.4399999.2950021-.6940476.2950021-.1597619 0-.3208333-.0389472-.4675-.1210196l-16.95689986-9.4583907v19.0944023c0 .0350394.00157845.0698088.00498322.1041739.00144047.0146895.00419048.0289748.00615477.0433946.00248809.0176542.00445237.0353087.00785714.0526934.00419046.0221015.00995237.0433945.01545237.0646875.00261904.0099726.00458333.0199453.00746428.0297832.00641667.021832.01414287.0428555.02186905.0640137.00340477.0094335.00628571.0190019.01008334.0284355.00759524.019002.01636905.0373301.02501191.055793.00536904.0113204.01021428.0226407.01597619.033961.00785714.0149589.0165.0295136.0250119.0439334.00811905.0138808.01584524.0278965.0244881.0416427.00720238.0113204.01532142.0218321.02304762.0326131.01113095.0160372.02213094.0318048.03417856.0471681.00667858.0084904.01414287.0163067.02108334.0245273.01388095.0165761.0277619.0328829.04269047.0483809.00785714.0082207.0162381.0154981.02435714.0231796.01492859.0145549.02959524.0289747.04544048.0424514.01532143.0132071.03155953.0249316.04753571.0370606.00942858.0071425.01820239.0146894.02789286.0215624.02815477.019541.05735715.0375995.0874762.0544452l24.22304751 13.4746758c.145881.081129.3064287.1215586.4671073.1215586v-32.015461c0 .2656231-.1021429.5243731-.2880954.7157405z" stroke="#fff" stroke-width="2"/></g><path d="m19.6439393 46.7008041c-.3682684-.2208425-.729482-.4005543-1.038489-.52877-.9100888-.3759586-1.0723528-.1113822-1.0723528.556895v1.0323728l2.1672815 1.3087123v.4178654l-3.1944826-1.9289875c-.6250689-.3774477-1.1824099-.3038139-1.354551.3619095-.1975386.762535-.2060047 1.3012619 0 2.3474192.1537979.7780472.5262994 1.4976605 1.1513683 1.8751082l.8578823.5180319v-1.290466c0-.7650618.613781-1.1041869 1.3432629-.6636894l1.8963713 1.1451231c.5982601.3612592 1.0836408.1212707 1.0836408-.5254985v-2.2122276c0-.6283338-.4994905-1.4000495-1.0836408-1.858791-.3696793-.2892905-.3880224-.3341647-.7562909-.5550074zm-1.2568425.1866618c.2110214.1274252.3870968.4220037.3870968.6540396 0 .2305767-.1760754.3139684-.3870968.1865432-.2123654-.1282368-.3870967-.4234631-.3870967-.6540398 0-.2320359.1747313-.3147798.3870967-.186543zm3.4523072 3.4506219v1.2904425c0 .7650485-.6137809 1.1041604-1.3432629.6636628l-1.8963713-1.1451232c-.59826-.3612589-1.0836408-.1212803-1.0836408.5254773v2.2121877c0 .6283224.4994909 1.4015661 1.0836408 1.8587694.3696797.2892893.3880225.3356992.7562909.5550053.3682684.2208427.729482.4005555 1.0384891.5287718.9100887.377498 1.0723528.1113918 1.0723528-.5568731v-1.0323543l-2.1672815-1.3087124v-.4178575l3.1944826 1.9289872c.6250689.3774478 1.1824103.3038218 1.3545508-.3618881.1975388-.7625187.2060048-1.301236 0-2.3473768-.1537978-.7780342-.5262993-1.4976391-1.1513682-1.8750868zm-1.3232749 4.874875c.2123657.1282371.3870967.4234634.3870967.6540397 0 .2320362-.174731.3147802-.3870967.1865434-.2110215-.1274253-.3870968-.4220038-.3870968-.65404 0-.2305762.1760753-.3139683.3870968-.1865431z" fill="#fff" fill-rule="nonzero"/></g></svg>