<svg height="35" viewBox="0 0 134 35" width="134" xmlns="http://www.w3.org/2000/svg"><g fill="none" fill-rule="evenodd"><path d="m1 1h33v33h-33z" fill="#fff" fill-rule="nonzero" stroke="#fff" stroke-width="2"/><path d="m11 24.0039062v-14.0039062h1.9824219l3.2324219 10.1269531v-10.1269531h1.3867187v14.0039062h-1.6210937l-3.5839844-11.3183593v11.3183593zm8.1933594 0v-14.0039062h5.5566406v1.4257812h-3.9941406v5.0976563h3.2128906v1.4160156h-3.2128906v6.0644531z" fill="#202226"/><path d="m34 1h99v33h-99z" fill-rule="nonzero" stroke="#fff" stroke-width="2"/><path d="m53 23.0195312v-11.9033203h1.6850586l2.7475586 8.6079102v-8.6079102h1.1787109v11.9033203h-1.3779297l-3.0463867-9.6206054v9.6206054zm6.9643555 0v-11.9033203h1.328125v11.9033203zm2.5815429-2.8720703v-6.1508789c0-.9296921.2227354-1.661537.6682129-2.1955566s1.1109168-.8010254 1.9963379-.8010254c.890955 0 1.5619281.2670058 2.0129395.8010254.4510113.5340196.6765136 1.2658645.6765136 2.1955566v1.0708008h-1.2617187v-1.1455078c0-1.1455135-.4648391-1.7182617-1.3945313-1.7182617-.464846 0-.8134754.1494125-1.0458984.4482422-.232423.2988296-.3486328.7221652-.3486328 1.2700195v6.2919922c0 .5478543.1162098.9711899.3486328 1.2700195s.5810524.4482422 1.0458984.4482422c.9296922 0 1.3945313-.5727482 1.3945313-1.7182617v-1.5439453h1.2617187v1.477539c0 .9296922-.2255023 1.6601536-.6765136 2.1914063-.4510114.5312526-1.1219845.796875-2.0129395.796875-.8854211 0-1.5508604-.2656224-1.9963379-.796875-.4454775-.5312527-.6682129-1.2617141-.6682129-2.1914063zm6.5576172 2.8720703v-11.9033203h1.328125v5.7524414l3.1625977-5.7524414h1.3364258l-3.0048829 5.428711 3.112793 6.4746093h-1.3613281l-2.5483399-5.1713867-.6972656 1.178711v3.9926757zm9.5791016 0v-11.9033203h4.7231445v1.2119141h-3.3950195v4.3330078h2.730957v1.2036133h-2.730957v5.1547851zm5.7773437 0v-11.9033203h1.328125v11.9033203zm2.581543-2.8720703v-6.1508789c0-.9296921.2227354-1.661537.6682129-2.1955566s1.1109168-.8010254 1.9963379-.8010254c.890955 0 1.5619281.2670058 2.0129394.8010254.4510114.5340196.6765137 1.2658645.6765137 2.1955566v1.0708008h-1.2617187v-1.1455078c0-1.1455135-.4648391-1.7182617-1.3945313-1.7182617-.4648461 0-.8134754.1494125-1.0458984.4482422-.2324231.2988296-.3486328.7221652-.3486328 1.2700195v6.2919922c0 .5478543.1162097.9711899.3486328 1.2700195.232423.2988296.5810523.4482422 1.0458984.4482422.9296922 0 1.3945313-.5727482 1.3945313-1.7182617v-1.5439453h1.2617187v1.477539c0 .9296922-.2255023 1.6601536-.6765137 2.1914063-.4510113.5312526-1.1219844.796875-2.0129394.796875-.8854211 0-1.5508604-.2656224-1.9963379-.796875-.4454775-.5312527-.6682129-1.2617141-.6682129-2.1914063zm6.2172852 2.8720703 2.274414-11.9033203h1.9257813l2.274414 11.9033203h-1.3198242l-.4648437-2.3989257h-3.0048828l-.4648438 2.3989257zm1.8510742-3.5361328h2.65625l-1.3447266-6.8647461zm5.6445317 3.5361328v-11.9033203h1.685058l2.747559 8.6079102v-8.6079102h1.178711v11.9033203h-1.37793l-3.046387-9.6206054v9.6206054zm6.864746-2.8720703v-6.1508789c0-.935226.229652-1.6684543.688964-2.199707.459313-.5312527 1.134436-.796875 2.025391-.796875.896489 0 1.577146.2656223 2.041992.796875s.697266 1.264481.697266 2.199707v6.1508789c0 .9241583-.23242 1.6532363-.697266 2.1872559s-1.145503.8010254-2.041992.8010254c-.885421 0-1.559161-.2670058-2.02124-.8010254s-.693115-1.2630976-.693115-2.1872559zm1.303222.0664063c0 .5533882.117594.9781072.352783 1.2741699.23519.2960627.58797.4440918 1.05835.4440918.94076 0 1.411133-.5727482 1.411133-1.7182617v-6.2919922c0-.5478543-.11621-.9711899-.348633-1.2700195-.232423-.2988297-.586586-.4482422-1.0625-.4482422-.47038 0-.82316.1494125-1.05835.4482422-.235189.2988296-.352783.7221652-.352783 1.2700195z" fill="#fff"/></g></svg>