<svg height="52" viewBox="0 0 68 52" width="68" xmlns="http://www.w3.org/2000/svg"><g fill="none" fill-rule="evenodd" stroke="#fff" stroke-width="2" transform="translate(1 1)"><path d="m63.2821626 4.47107919c2.2311825 2.82095005 2.7178374 6.18526891 2.7178374 14.62018931v11.8176832c0 7.735487-1.1726577 12.3039482-3.999272 15.1815841-2.7495291 2.7992875-6.8818919 3.9094642-14.177814 3.9094642h-29.6462419c-13.94914859 0-18.1766721-5.1354377-18.1766721-19.0910483v-11.8176832c0-8.6916223.34570495-11.48835814 2.44763318-14.32902384 2.53100356-3.42043577 7.11872432-4.76224466 15.72903892-4.76224466h29.6460349c8.4145202 0 12.9190386 1.25854258 15.4594556 4.47107919z"/><path d="m42.0327606 26.7045722.000149-.0000811-13.3839948 7.2804604c-.4251031.2312702-.8942461.3500868-1.3688134.3500868-.5372784 0-1.0665159-.1524193-1.531809-.4456127-.89351-.5635233-1.4427369-1.5782273-1.4427369-2.6766646v-14.5142709c0-1.0968463.5478848-2.1105674 1.4397047-2.6744658.8839348-.5587257 1.9801671-.5968822 2.8967502-.101258l13.3839867 7.2335488c.987069.5333965 1.6113808 1.6013423 1.612893 2.7718865.0012027 1.1707564-.6203475 2.240379-1.6061295 2.7763706z"/></g></svg>